HIERARCHY
ROOT Hips
{
	OFFSET 0.00000 0.00000 0.00000
	CHANNELS 6 Xposition Yposition Zposition Yrotation Zrotation Xrotation 
	JOINT Lumbar
	{
		OFFSET 0 0 0
		CHANNELS 3 Zrotation Xrotation Yrotation
		JOINT Neck
		{
			OFFSET 0.00 0.2701 0.00
			CHANNELS 3 Zrotation Xrotation Yrotation
			End Site
			{
				OFFSET 0.00 0.1379 0.00
			}
		}
		JOINT RightShoulder
		{
			OFFSET 0.0119 0.2289 0.1181
			CHANNELS 3 Zrotation Xrotation Yrotation
			JOINT RightElbow
			{
				OFFSET 0.00 -0.1475 0.00
				CHANNELS 2 Zrotation Yrotation
				JOINT RightWrist
				{
					OFFSET 0.00 -0.1605 0.00
					CHANNELS 2 Zrotation Xrotation
					End Site
					{
						OFFSET 0.0040 -0.1068 0.0006
					}
				}
			}
		}
		JOINT LeftShoulder
		{
			OFFSET 0.0119 0.2289 -0.1181
			CHANNELS 3 Zrotation Xrotation Yrotation
			JOINT LeftElbow
			{
				OFFSET 0.00 -0.1475 0.00
				CHANNELS 2 Zrotation Yrotation
				JOINT LeftWrist
				{
					OFFSET 0.00 -0.1605 0.00
					CHANNELS 2 Zrotation Xrotation
					End Site
					{
						OFFSET 0.0040 -0.1068 -0.0006
					}
				}
			}
		}
	}
	JOINT RightHip
	{
		OFFSET 0.0316 -0.0424 0.0458
		CHANNELS 3 Zrotation Xrotation Yrotation
		JOINT RightKnee
		{
			OFFSET 0.00 -0.2438 0.00
			CHANNELS 1 Zrotation
			JOINT RightAnkle
			{
				OFFSET 0.00 -0.2449 0.00
				CHANNELS 3 Zrotation Xrotation Yrotation
				End Site
				{
					OFFSET 0.1237 -0.0542 0.0051
				}
			}
		}
	}
	JOINT LeftHip
	{
		OFFSET 0.0316 -0.0424 -0.0458
		CHANNELS 3 Zrotation Xrotation Yrotation
		JOINT LeftKnee
		{
			OFFSET 0.00 -0.2438 0.00
			CHANNELS 1 Zrotation
			JOINT LeftAnkle
			{
				OFFSET 0.00 -0.2449 0.00
				CHANNELS 3 Zrotation Xrotation Yrotation
				End Site
				{
					OFFSET 0.1237 -0.0542 -0.0051
				}
			}
		}
	}
}
MOTION
Frames: 23
Frame Time: 0.02
-0.98056 0.51312 0.40554 530.5041 0 -0.05941 -53.53713 10.82994 0.29554 -48.5631 -4.44487 -6.52297 75.59493 -18.22429 14.23869 39.95161 126.2433 -42.2775 -8.93134 86.35167 31.2816 -31.62291 15.93168 -82.46346 -3.2766 5.55716 38.92718 -0.01635 8.18134 -51.51031 -2.60781 -3.4619 -17.26316 35.46605 8.57594 9.37969 -48.94326 1.73093 5.21219 10.96825
-0.97385 0.50638 0.40513 531.50235 0 0.04871 -54.11149 10.16349 0.32485 -48.43915 -3.23991 -3.22865 75.63888 -21.90182 15.24953 40.40569 125.53164 -41.8375 -8.83165 85.5285 28.00575 -26.72608 15.13286 -82.97418 -3.40807 5.45317 40.58786 -0.62392 7.3301 -53.57245 -2.13725 -3.63718 -17.06597 37.33904 8.53433 9.18155 -50.72182 1.99293 5.15369 10.30486
-0.96731 0.49992 0.40448 532.36355 0 0.21477 -54.56348 9.36959 0.32988 -48.59454 -2.01067 0.26567 75.95932 -25.85307 15.91807 40.20465 124.80862 -41.0775 -8.77138 85.09668 24.4348 -21.89691 14.27785 -83.49033 -3.42201 5.26027 42.14799 -1.31087 6.55209 -55.39961 -1.78407 -3.81487 -16.81368 39.00176 8.46125 9.19457 -52.17899 2.10309 5.04061 9.59202
-0.96073 0.4933 0.40394 533.28698 0 0.3535 -55.04992 8.64914 0.34626 -48.59454 -0.8043 3.5857 76.10632 -29.58723 16.73575 40.27535 124.08969 -40.46967 -8.69444 84.44311 21.08468 -17.11728 13.47478 -83.97864 -3.48792 5.11185 43.75716 -1.95846 5.74731 -57.33935 -1.39167 -3.98538 -16.59256 40.7652 8.39894 9.10773 -53.79045 2.27951 4.95218 8.90997
-0.95401 0.4868 0.40336 534.21681 0 0.4955 -55.62754 7.86383 0.35748 -48.70518 0.46093 7.26291 76.44011 -33.72388 17.58526 40.46462 123.33959 -39.81096 -8.60914 83.95747 17.36682 -11.95592 12.55302 -84.57695 -3.56818 4.94378 45.35319 -2.63083 4.87248 -59.25768 -0.93997 -4.1818 -16.34372 42.51107 8.35236 9.04323 -55.37184 2.47093 4.86391 8.18532
-0.94761 0.48011 0.40281 535.09678 0 0.64329 -55.98031 7.18346 0.37677 -48.66297 1.60624 10.24487 76.46227 -37.08604 18.28515 40.24728 122.66081 -39.18163 -8.55179 83.22892 14.33989 -7.6231 11.8669 -84.94762 -3.58686 4.79685 46.95135 -3.265 4.17599 -61.16179 -0.63882 -4.32494 -16.14029 44.24168 8.26636 8.97936 -56.93766 2.59375 4.76289 7.54138
-0.942 0.47277 0.40241 535.89188 0 0.81176 -55.80484 6.81944 0.40421 -48.03717 2.40882 11.21712 75.48156 -38.20167 18.65637 39.07513 122.23685 -38.82606 -8.56239 81.64627 13.36349 -5.55229 11.8585 -84.67346 -3.47278 4.72604 48.59098 -3.78946 3.97098 -63.10527 -0.73411 -4.31788 -16.07488 45.98399 8.06515 8.87488 -58.53859 2.56363 4.63562 7.12223
-0.9367 0.46523 0.40205 536.63691 0 0.98106 -55.39569 6.56621 0.44462 -47.266 3.08862 11.48843 74.1926 -38.53278 18.88691 37.51396 121.87926 -38.49489 -8.60013 79.82444 13.08137 -4.32163 12.08836 -84.17315 -3.29901 4.68124 50.23351 -4.26845 3.94635 -65.03756 -0.97543 -4.25753 -16.05721 47.71634 7.82767 8.76148 -60.13352 2.46918 4.4982 6.78889
-0.93129 0.45779 0.40168 537.39214 0 1.13782 -55.05358 6.26501 0.49253 -46.62187 3.82822 12.10721 73.09508 -39.24934 19.18215 36.1245 121.46267 -38.08175 -8.62557 78.16949 12.43538 -2.71716 12.20104 -83.78433 -3.14479 4.62661 51.86841 -4.75706 3.83399 -66.96208 -1.14344 -4.22313 -16.01888 49.45221 7.61572 8.64513 -61.73197 2.40434 4.3684 6.42382
-0.92577 0.45031 0.40126 538.19736 0 1.34735 -54.87444 5.949 0.483 -45.72764 4.55595 12.61412 71.79091 -39.85856 19.46694 34.73313 121.17215 -37.95434 -8.65208 76.27782 11.97998 -1.07651 12.34729 -83.35504 -3.01493 4.55777 53.52927 -5.29564 3.74648 -68.93635 -1.34378 -4.18147 -15.97542 51.18855 7.36453 8.56512 -63.31947 2.33336 4.22419 6.02605
-0.92056 0.44288 0.40095 538.88623 0 1.44712 -54.29948 5.69224 0.5965 -45.31919 5.27389 13.18104 70.83957 -40.49525 19.73872 33.2627 120.62826 -37.2441 -8.68244 74.82305 11.30026 0.28498 12.48336 -82.96121 -2.82623 4.52919 55.13452 -5.71777 3.65075 -70.80283 -1.5113 -4.14228 -15.95319 52.91987 7.18681 8.40542 -64.92807 2.261 4.10806 5.71769
-0.91605 0.43549 0.40093 539.28439 0 1.23738 -52.71009 5.569 1.04658 -46.25916 6.03692 14.11496 70.94231 -41.44829 20.05923 31.66539 119.43223 -34.90489 -8.71553 74.58181 9.80157 1.12084 12.51372 -82.68388 -2.45331 4.57687 56.61587 -5.83287 3.4771 -72.41411 -1.5401 -4.12255 -15.99155 54.67777 7.22161 8.01928 -66.63559 2.20815 4.07423 5.63361
-0.91185 0.42819 0.40102 539.56447 0 0.91809 -50.72699 5.50276 1.61984 -47.69557 6.78626 15.12549 71.4072 -42.44415 20.36323 30.00667 117.96976 -31.98466 -8.75155 74.79515 8.0616 1.69676 12.52992 -82.46108 -2.03225 4.66949 58.03569 -5.83121 3.29086 -73.91079 -1.53248 -4.10717 -16.04754 56.42463 7.33174 7.55406 -68.35857 2.15529 4.0689 5.6371
-0.90757 0.42096 0.40107 539.88721 0 0.65266 -48.91084 5.41303 2.13721 -48.92375 7.51422 16.08209 71.70383 -43.38892 20.6443 28.38082 116.58437 -29.33843 -8.78692 74.83342 6.45134 2.36683 12.5651 -82.23203 -1.65558 4.76128 59.46468 -5.88044 3.11737 -75.43549 -1.54916 -4.09014 -16.08656 58.15305 7.40685 7.12924 -70.05073 2.09841 4.0492 5.60186
-0.90306 0.41327 0.40106 540.25439 0 0.36982 -47.13729 5.31692 2.6559 -50.07934 8.35474 17.10067 72.01112 -44.44579 21.05115 26.71687 115.37651 -26.64218 -8.82061 74.73471 4.77477 3.11196 12.55402 -81.89957 -1.17496 4.77308 60.97436 -5.93761 2.92032 -77.06245 -1.53861 -4.07007 -16.16425 59.98121 7.48343 6.68426 -71.84402 2.05683 4.03486 5.56517
-0.89909 0.40655 0.4012 540.50184 0 0.09755 -45.18423 5.2462 3.19932 -51.49877 8.95877 18.01041 72.37903 -45.28232 21.19093 25.12679 113.748 -23.92267 -8.85787 75.02711 3.17713 3.64604 12.63482 -81.82008 -0.90867 4.95948 62.29969 -5.95075 2.76725 -78.44786 -1.57379 -4.0578 -16.16593 61.59768 7.576 6.26401 -73.42909 1.98341 4.01655 5.55104
-0.89646 0.40239 0.40172 540.44643 0 -0.12174 -42.83601 5.23138 3.79383 -53.58575 8.91699 18.66383 72.88921 -45.56467 20.62585 23.72601 110.91147 -21.19033 -8.90653 76.33306 1.79369 3.6961 12.95513 -82.23647 -1.1756 5.63653 63.14488 -5.87381 2.73553 -79.20715 -1.74702 -4.06849 -15.94507 62.64519 7.68888 5.91873 -74.44742 1.82953 3.97798 5.57864
-0.89437 0.39921 0.40237 540.27521 0 -0.32616 -40.32148 5.23967 4.40587 -55.90978 8.63777 19.19666 73.43823 -45.6157 19.78916 22.41006 107.68305 -18.47246 -8.95822 78.00913 0.50687 3.53888 13.37072 -82.93858 -1.67408 6.48343 63.80404 -5.75626 2.74806 -79.72497 -1.9663 -4.08668 -15.64844 63.47783 7.81655 5.60336 -75.25351 1.6424 3.93478 5.62518
-0.89206 0.39563 0.40295 540.15792 0 -0.53529 -37.88105 5.237 5.00213 -58.08732 8.46509 19.74715 73.92854 -45.73403 19.05734 21.07582 104.70478 -15.80617 -9.00677 79.48826 -0.7872 3.45972 13.75281 -83.6396 -2.11216 7.2404 64.5393 -5.65561 2.74169 -80.34501 -2.16177 -4.10009 -15.39171 64.4003 7.94109 5.28272 -76.14899 1.46618 3.89548 5.66225
-0.88964 0.39188 0.4036 540.03055 0 -0.75644 -35.43146 5.23829 5.63823 -60.44888 8.29682 20.45738 74.60194 -46.01276 18.39837 19.65046 101.40601 -12.87013 -9.06249 81.10682 -2.24639 3.4454 14.09229 -83.81304 -2.35635 8.05507 65.30818 -5.55748 2.73045 -80.99284 -2.36799 -4.11942 -15.11252 65.35486 8.05272 4.92452 -77.07482 1.30834 3.85019 5.70671
-0.88758 0.38869 0.40413 539.89875 0 -0.94814 -32.96855 5.23611 6.19071 -62.47303 8.06416 20.80447 74.9019 -45.90238 17.52949 18.43988 98.69405 -10.51192 -9.10442 82.51395 -3.33268 3.24238 14.5444 -85.13463 -3.06367 8.7864 65.96352 -5.44593 2.73928 -81.52686 -2.56353 -4.12813 -14.86193 66.19236 8.19419 4.65226 -77.88681 1.10349 3.81516 5.73831
-0.88639 0.38682 0.40434 539.77848 0 -1.05681 -30.49641 5.21758 6.53377 -63.53778 7.70336 20.18706 74.13135 -44.77266 16.09867 17.76975 97.62476 -9.70928 -9.10289 83.26839 -3.43737 2.63733 15.27707 -89.70932 -4.96031 9.2707 66.35219 -5.30791 2.79896 -81.80615 -2.71581 -4.10577 -14.70834 66.75355 8.41084 4.61417 -78.43614 0.78379 3.81608 5.7358
-0.88554 0.38548 0.40444 539.65882 0 -1.13665 -28.02193 5.19449 6.78609 -64.2458 7.2875 19.20721 72.98778 -43.26038 14.47751 17.31984 97.17495 -9.49921 -9.0879 83.78934 -3.16415 1.83715 16.12286 -95.39941 -7.31965 9.66059 66.63315 -5.158 2.87639 -81.97948 -2.85673 -4.07237 -14.58627 67.20551 8.65748 4.66109 -78.87812 0.41644 3.82623 5.71783
